# xmcd
#
# Track frame offsets: 
#        182
#        23390
#        44490
#        69700
#        99230
#        124665
#        144352
#        168845
#        196345
#        219907
#        237445
#
# Disc length: 3490 seconds
#
# Revision: 4
# Processed by: cddbd v1.5.2PL0 Copyright (c) Steve Scherf et al.
# Submitted via: ExactAudioCopyFreeDBPlugin 1.0
#
DISCID=8d0da00b
DTITLE=Joe Louis Walker - Blues Of The Month Club
DYEAR=1995
DGENRE=Blues
TTITLE0=Blues Of The Month Club
TTITLE1=You've Got To Lose
TTITLE2=Lost Heart
TTITLE3=Bluesifyin'
TTITLE4=Hidden Feelings
TTITLE5=Play'em Where They Lay
TTITLE6=Get It Right
TTITLE7=I'm Not Comin' Over
TTITLE8=Second Street
TTITLE9=Your Lyin' Eyes
TTITLE10=Street People
EXTD=
EXTT0=
EXTT1=
EXTT2=
EXTT3=
EXTT4=
EXTT5=
EXTT6=
EXTT7=
EXTT8=
EXTT9=
EXTT10=
PLAYORDER=
